<?xml version="1.0" encoding="UTF-8"?>
<svg viewBox="0 0 640 480" xmlns="http://www.w3.org/2000/svg">
 <g fill="#fff" stroke="#231f20" stroke-miterlimit="10" stroke-width=".5">
  <rect x="254" y="391.54" width="100" height="12"/>
  <path d="m354 386.54c0 2.762-2.866 5-6.399 5h-87.201c-3.533 0-6.399-2.238-6.399-5s2.866-5 6.399-5h87.201c3.533 0 6.399 2.238 6.399 5z"/>
  <rect x="259" y="376.54" width="90" height="5"/>
  <rect x="259" y="356.54" width="90" height="5"/>
  <path d="m349 361.54h-90s3.996-0.084015 3.996 7.457c0 7.543-3.996 7.543-3.996 7.543h90s-4.004 0.08197-4.004-7.459 4.004-7.541 4.004-7.541z"/>
 </g>
 <g fill="#fff" stroke="#231f20" stroke-miterlimit="10" stroke-width=".5">
  <path d="m354 119.46c0 2.762-2.866 5-6.399 5h-87.201c-3.533 0-6.399-2.238-6.399-5s2.866-5.001 6.399-5.001h87.201c3.533 0 6.399 2.239 6.399 5.001z"/>
  <rect x="259" y="144.46" width="90" height="4.998"/>
  <rect x="259" y="124.46" width="90" height="5"/>
  <path d="m349 129.46h-90s3.995-0.083984 3.995 7.457c0 7.543-3.995 7.543-3.995 7.543h90s-4.005 0.079987-4.005-7.459c0-7.541 4.005-7.541 4.005-7.541z"/>
  <rect x="254" y="102.46" width="100" height="12"/>
 </g>
 <path d="m299 348c0 2.762 2.238 5 5 5s5-2.238 5-5v-190c0-2.762-2.238-5-5-5s-5 2.238-5 5v190z" fill="#fff"/>
 <path d="m299 348c0 2.762 2.238 5 5 5s5-2.238 5-5v-190c0-2.762-2.238-5-5-5s-5 2.238-5 5v190z" fill="none" stroke="#231f20" stroke-miterlimit="10" stroke-width=".5"/>
 <path d="m284.67 349c0 2.209 1.791 4 4 4s4-1.791 4-4v-192c0-2.209-1.791-4-4-4s-4 1.791-4 4v192z" fill="#fff"/>
 <path d="m284.67 349c0 2.209 1.791 4 4 4s4-1.791 4-4v-192c0-2.209-1.791-4-4-4s-4 1.791-4 4v192z" fill="none" stroke="#231f20" stroke-miterlimit="10" stroke-width=".5"/>
 <path d="m274.67 350c0 1.657 1.343 3 3 3s3-1.343 3-3v-194c0-1.657-1.343-3-3-3s-3 1.343-3 3v194z" fill="#fff"/>
 <path d="m274.67 350c0 1.657 1.343 3 3 3s3-1.343 3-3v-194c0-1.657-1.343-3-3-3s-3 1.343-3 3v194z" fill="none" stroke="#231f20" stroke-miterlimit="10" stroke-width=".5"/>
 <path d="m267 351c0 1.104 0.896 2 2 2s2-0.896 2-2v-196c0-1.104-0.896-2-2-2s-2 0.896-2 2v196z" fill="#fff"/>
 <path d="m267 351c0 1.104 0.896 2 2 2s2-0.896 2-2v-196c0-1.104-0.896-2-2-2s-2 0.896-2 2v196z" fill="none" stroke="#231f20" stroke-miterlimit="10" stroke-width=".5"/>
 <path d="m262 352c0 0.55301 0.44699 1 1 1s1-0.44699 1-1v-198c0-0.55301-0.44699-1-1-1s-1 0.44699-1 1v198z" fill="#fff"/>
 <path d="m262 352c0 0.55301 0.44699 1 1 1s1-0.44699 1-1v-198c0-0.55301-0.44699-1-1-1s-1 0.44699-1 1v198z" fill="none" stroke="#231f20" stroke-miterlimit="10" stroke-width=".5"/>
 <line x1="261" x2="261" y1="149.46" y2="356.54" fill="none" stroke="#231f20" stroke-miterlimit="10" stroke-width=".5"/>
 <path d="m315.33 349c0 2.209 1.791 4 4 4s4-1.791 4-4v-192c0-2.209-1.791-4-4-4s-4 1.791-4 4v192z" fill="#fff"/>
 <path d="m315.33 349c0 2.209 1.791 4 4 4s4-1.791 4-4v-192c0-2.209-1.791-4-4-4s-4 1.791-4 4v192z" fill="none" stroke="#231f20" stroke-miterlimit="10" stroke-width=".5"/>
 <path d="m327.33 350c0 1.657 1.343 3 3 3s3-1.343 3-3v-194c0-1.657-1.343-3-3-3s-3 1.343-3 3v194z" fill="#fff"/>
 <path d="m327.33 350c0 1.657 1.343 3 3 3s3-1.343 3-3v-194c0-1.657-1.343-3-3-3s-3 1.343-3 3v194z" fill="none" stroke="#231f20" stroke-miterlimit="10" stroke-width=".5"/>
 <path d="m337 351c0 1.104 0.896 2 2 2s2-0.896 2-2v-196c0-1.104-0.896-2-2-2s-2 0.896-2 2v196z" fill="#fff"/>
 <path d="m337 351c0 1.104 0.896 2 2 2s2-0.896 2-2v-196c0-1.104-0.896-2-2-2s-2 0.896-2 2v196z" fill="none" stroke="#231f20" stroke-miterlimit="10" stroke-width=".5"/>
 <path d="m344 352c0 0.55301 0.44699 1 1 1s1-0.44699 1-1v-198c0-0.55301-0.44699-1-1-1s-1 0.44699-1 1v198z" fill="#fff"/>
 <path d="m344 352c0 0.55301 0.44699 1 1 1s1-0.44699 1-1v-198c0-0.55301-0.44699-1-1-1s-1 0.44699-1 1v198z" fill="none" stroke="#231f20" stroke-miterlimit="10" stroke-width=".5"/>
 <line x1="347" x2="347" y1="149.46" y2="356.54" fill="none" stroke="#231f20" stroke-miterlimit="10" stroke-width=".5"/>
</svg>
